<svg xmlns="http://www.w3.org/2000/svg" width="1200" height="630" viewBox="0 0 1200 630">
  <rect width="1200" height="630" fill="#0f172a"/>
  <svg x="500" y="120" width="200" height="200" viewBox="0 0 512 512">
    <g transform="translate(0,0) rotate(-8, 256, 256)">
      <path d="M 181.13024000000001 148.48000000000002 L 175.7769684068833 164.352 L 190.20237617839248 180.22400000000002 L 178.4525737009197 196.096 L 173.1443918712335 211.96800000000002 L 173.79590755407398 227.84 L 181.88989425982618 243.712 L 189.19355689462532 259.584 L 188.83729703965707 275.456 L 193.38598540817466 291.328 L 176.43247877984206 307.2 L 180.0743281229824 323.072 L 191.226105143145 338.94399999999996 L 187.31006962055568 354.81600000000003 L 203.08157887610022 370.688 L 197.44335168472278 385.024 L 209.84135825550075 370.688 L 201.71490640975674 354.81600000000003 L 198.49977480052962 338.94399999999996 L 199.2887129635491 323.072 L 192.4232262568917 307.2 L 208.51444463534628 291.328 L 218.45582343605582 275.456 L 202.84275158653327 259.584 L 214.6572154355677 243.712 L 200.79982233583362 227.84 L 196.12087854714753 211.96800000000002 L 223.49961850110225 196.096 L 210.4055296244962 180.22400000000002 L 221.5975698526552 164.352 L 219.76576 148.48000000000002 Z" fill="#f97316" opacity="0.95"/>
      <line x1="195.072" y1="302.592" x2="208.0648284349574" y2="296.53334459968534" stroke="#f97316" stroke-width="4.928" stroke-linecap="round" opacity="0.5"/>
      <line x1="183.2300580919804" y1="309.7783345706548" x2="207.29836658221745" y2="298.6838172570278" stroke="#f97316" stroke-width="4.928" stroke-linecap="round" opacity="0.5"/>
      <line x1="175.30275938410682" y1="359.862724246488" x2="193.74108777757505" y2="351.4615827689318" stroke="#f97316" stroke-width="4.928" stroke-linecap="round" opacity="0.5"/>
      <path d="M 239.64436710478446 148.48000000000002 L 251.0964169761539 164.352 L 238.03942339375664 180.22400000000002 L 240.28921030420145 196.096 L 232.80285598490326 211.96800000000002 L 237.1223820635535 227.84 L 243.22289457539352 243.712 L 253.55471449009332 259.584 L 252.39819183966353 275.456 L 240.3125761193334 291.328 L 246.80517810516906 307.2 L 238.4052320086017 323.072 L 248.18563485328008 338.94399999999996 L 264.31220496668533 354.81600000000003 L 252.11930431789344 370.688 L 256.86224716815434 385.024 L 263.3857194965531 370.688 L 270.2936240738177 354.81600000000003 L 264.88999362027187 338.94399999999996 L 251.83172791328693 323.072 L 260.7574638402228 307.2 L 266.6106761807085 291.328 L 264.65012042468123 275.456 L 284.1613836033139 259.584 L 267.21212767429165 243.712 L 259.28896253661065 227.84 L 274.3984245926965 211.96800000000002 L 258.9362579711328 196.096 L 282.0836328507343 180.22400000000002 L 286.2650293173998 164.352 L 269.50681789673035 148.48000000000002 Z" fill="#f97316" opacity="0.95"/>
      <line x1="244.60640362590377" y1="282.72122845904966" x2="262.2140668098447" y2="271.30958427810975" stroke="#f97316" stroke-width="4.928" stroke-linecap="round" opacity="0.5"/>
      <line x1="256.532770748949" y1="329.2826762765478" x2="275.81685241765143" y2="316.68259379449466" stroke="#f97316" stroke-width="4.928" stroke-linecap="round" opacity="0.5"/>
      <line x1="268.2830174851684" y1="340.79133092682093" x2="289.34472957080646" y2="326.91909447548903" stroke="#f97316" stroke-width="4.928" stroke-linecap="round" opacity="0.5"/>
      <path d="M 298.8328814506763 148.48000000000002 L 304.45361653673115 164.352 L 306.4325305022666 180.22400000000002 L 291.89645203296 196.096 L 295.5359316839647 211.96800000000002 L 299.5489567265433 227.84 L 311.1906394532779 243.712 L 309.785083810047 259.584 L 311.20302689822626 275.456 L 305.76738441846766 291.328 L 294.1008323730041 307.2 L 311.95536750778416 323.072 L 312.3723524294574 338.94399999999996 L 315.52657725218523 354.81600000000003 L 324.45190531082073 370.688 L 313.49622310828784 385.024 L 329.18301996391585 370.688 L 329.59158968869997 354.81600000000003 L 323.3948255881939 338.94399999999996 L 324.6115811997843 323.072 L 317.103383206421 307.2 L 316.70579697999113 291.328 L 339.49103376105637 275.456 L 330.9236548508742 259.584 L 332.45012391896506 243.712 L 337.6779756072746 227.84 L 312.75147228571655 211.96800000000002 L 333.98126170726374 196.096 L 338.2971086131807 180.22400000000002 L 333.7700795600954 164.352 L 352.34928199777295 148.48000000000002 Z" fill="#f97316" opacity="0.95"/>
      <line x1="336.25381889233324" y1="296.55526086607983" x2="361.3473688089694" y2="291.4410813861574" stroke="#f97316" stroke-width="4.928" stroke-linecap="round" opacity="0.5"/>
      <line x1="327.86625612986353" y1="316.3688437728213" x2="344.45763171022014" y2="313.02021746111785" stroke="#f97316" stroke-width="4.928" stroke-linecap="round" opacity="0.5"/>
      <line x1="315.8627855785516" y1="352.74092156770814" x2="342.21226661787017" y2="347.47299165557524" stroke="#f97316" stroke-width="4.928" stroke-linecap="round" opacity="0.5"/>
      <path d="M 256.5376 327.68 L 297.55648 346.24512 L 345.85088 273.36448 L 356.88960000000003 277.504 L 354.12992 291.30240000000003 L 305.83552000000003 371.08224 L 267.57632 344.23808 Z" fill="#22d3ee" opacity="0.95"/>
    </g>
  </svg>
  <text x="600" y="420" text-anchor="middle" font-family="system-ui, -apple-system, sans-serif" font-size="64" font-weight="bold" fill="white">Tasks</text>
</svg>
